<?xml version="1.0" encoding="UTF-8"?>
<svg xmlns="http://www.w3.org/2000/svg" xmlns:xlink="http://www.w3.org/1999/xlink" width="48px" height="48px" viewBox="0 0 48 48" version="1.1">
<g id="surface1">
<path style="fill-rule:nonzero;fill:rgb(80.000001%,16.078432%,32.941177%);fill-opacity:1;stroke-width:1;stroke-linecap:butt;stroke-linejoin:miter;stroke:rgb(33.333334%,70.588237%,40.784314%);stroke-opacity:1;stroke-miterlimit:4;" d="M 13 2 L 14 2.5 L 14 6 L 13 6 Z M 15 8 L 16 8 L 16 5 L 15 3.5 Z M 16 9 L 15 9 L 15 10 L 16 10 Z M 16 11 L 15 11 L 15 14 L 16 14 Z M 14 9 L 13 9 L 13 12 L 14 12 Z M 14 7 L 13 7 L 13 8 L 14 8 Z M 23 7 L 22 7 L 22 8 L 23 8 Z M 22 9 L 21 9 L 21 10 L 22 10 Z M 20 7 L 19 7 L 19 8 L 20 8 Z M 20 2 L 19 2 L 19 3 L 20 3 Z M 21 5 L 20 5 L 20 6 L 21 6 Z M 23 3 L 22 3 L 22 4 L 23 4 Z M 23 3 " transform="matrix(1.5,0,0,1.5,0,0)"/>
<path style="fill-rule:nonzero;fill:rgb(16.862746%,25.098041%,60.000002%);fill-opacity:1;stroke-width:1;stroke-linecap:butt;stroke-linejoin:miter;stroke:rgb(33.333334%,70.588237%,40.784314%);stroke-opacity:1;stroke-miterlimit:4;" d="M 18 11 C 18 6.5 16 1 10 1 L 10 19 L 9 19 L 9 20 L 10 20 L 10 27.5 C 10 28.880208 11.119792 30 12.5 30 C 13.880208 30 15 28.880208 15 27.5 L 15 20 L 16 20 L 16 19 L 15.059896 19 C 16.580729 17.151042 18 14.789062 18 11 Z M 11 2.059896 C 16.697917 2.770833 17 9.575521 17 11 C 17 14.830729 15.434896 17.083333 13.75 19 L 11 19 Z M 14 22 L 14 23 L 12 23 L 12 24 L 14 24 L 14 25 L 12 25 L 12 26 L 14 26 L 14 27 L 12 27 L 12 28 L 13.908854 28 C 13.700521 28.580729 13.151042 29 12.5 29 C 11.671875 29 11 28.328125 11 27.5 L 11 20 L 14 20 L 14 21 L 12 21 L 12 22 Z M 14 22 " transform="matrix(1.5,0,0,1.5,0,0)"/>
</g>
</svg>
